<svg width="34" height="34" viewBox="0 0 34 34" fill="none" xmlns="http://www.w3.org/2000/svg">
<path d="M17 11.3333C18.5029 11.3333 19.9443 11.9303 21.007 12.993C22.0697 14.0557 22.6667 15.497 22.6667 16.9999C22.6667 18.5028 22.0697 19.9442 21.007 21.0069C19.9443 22.0696 18.5029 22.6666 17 22.6666C15.4971 22.6666 14.0558 22.0696 12.9931 21.0069C11.9304 19.9442 11.3333 18.5028 11.3333 16.9999C11.3333 15.497 11.9304 14.0557 12.9931 12.993C14.0558 11.9303 15.4971 11.3333 17 11.3333ZM17 14.1666C16.2486 14.1666 15.5279 14.4651 14.9965 14.9965C14.4652 15.5278 14.1667 16.2485 14.1667 16.9999C14.1667 17.7514 14.4652 18.472 14.9965 19.0034C15.5279 19.5347 16.2486 19.8333 17 19.8333C17.7515 19.8333 18.4721 19.5347 19.0035 19.0034C19.5348 18.472 19.8333 17.7514 19.8333 16.9999C19.8333 16.2485 19.5348 15.5278 19.0035 14.9965C18.4721 14.4651 17.7515 14.1666 17 14.1666ZM14.1667 31.1666C13.8125 31.1666 13.515 30.9116 13.4583 30.5716L12.9342 26.8174C12.0417 26.4633 11.2767 25.9816 10.54 25.4149L7.01252 26.8458C6.70085 26.9591 6.31835 26.8458 6.14835 26.5341L3.31502 21.6324C3.13085 21.3208 3.21585 20.9383 3.48502 20.7258L6.47418 18.3741L6.37502 16.9999L6.47418 15.5833L3.48502 13.2741C3.21585 13.0616 3.13085 12.6791 3.31502 12.3674L6.14835 7.46575C6.31835 7.15409 6.70085 7.02659 7.01252 7.15409L10.54 8.57075C11.2767 8.01825 12.0417 7.53659 12.9342 7.18242L13.4583 3.42825C13.515 3.08825 13.8125 2.83325 14.1667 2.83325H19.8333C20.1875 2.83325 20.485 3.08825 20.5417 3.42825L21.0658 7.18242C21.9583 7.53659 22.7233 8.01825 23.46 8.57075L26.9875 7.15409C27.2992 7.02659 27.6817 7.15409 27.8517 7.46575L30.685 12.3674C30.8692 12.6791 30.7842 13.0616 30.515 13.2741L27.5259 15.5833L27.625 16.9999L27.5259 18.4166L30.515 20.7258C30.7842 20.9383 30.8692 21.3208 30.685 21.6324L27.8517 26.5341C27.6817 26.8458 27.2992 26.9733 26.9875 26.8458L23.46 25.4291C22.7233 25.9816 21.9583 26.4633 21.0658 26.8174L20.5417 30.5716C20.485 30.9116 20.1875 31.1666 19.8333 31.1666H14.1667ZM15.9375 5.66659L15.4134 9.36409C13.7134 9.71825 12.2117 10.6249 11.1208 11.8858L7.70668 10.4124L6.64418 12.2541L9.63335 14.4499C9.06668 16.1074 9.06668 17.9066 9.63335 19.5499L6.63002 21.7599L7.69252 23.6016L11.135 22.1283C12.2259 23.3749 13.7134 24.2816 15.3992 24.6216L15.9233 28.3333H18.0767L18.6009 24.6358C20.2867 24.2816 21.7742 23.3749 22.865 22.1283L26.3075 23.6016L27.37 21.7599L24.3667 19.5641C24.9334 17.9066 24.9334 16.1074 24.3667 14.4499L27.3558 12.2541L26.2933 10.4124L22.8792 11.8858C21.7883 10.6249 20.2867 9.71825 18.5867 9.37825L18.0625 5.66659H15.9375Z" fill="black"/>
</svg>
