<svg width="34" height="34" viewBox="0 0 34 34" fill="none" xmlns="http://www.w3.org/2000/svg">
<path d="M16.9997 2.83325C15.1393 2.83325 13.2971 3.19968 11.5783 3.91163C9.85955 4.62357 8.29783 5.66708 6.98233 6.98257C4.32556 9.63934 2.83301 13.2427 2.83301 16.9999C2.83301 20.7572 4.32556 24.3605 6.98233 27.0173C8.29783 28.3328 9.85955 29.3763 11.5783 30.0882C13.2971 30.8002 15.1393 31.1666 16.9997 31.1666C20.7569 31.1666 24.3603 29.674 27.017 27.0173C29.6738 24.3605 31.1663 20.7572 31.1663 16.9999C31.1663 15.1395 30.7999 13.2973 30.088 11.5786C29.376 9.85979 28.3325 8.29807 27.017 6.98257C25.7015 5.66708 24.1398 4.62357 22.421 3.91163C20.7022 3.19968 18.8601 2.83325 16.9997 2.83325ZM16.9997 5.66659C20.0055 5.66659 22.8881 6.86063 25.0136 8.98604C27.139 11.1115 28.333 13.9941 28.333 16.9999C28.333 20.3999 26.9163 23.3749 24.508 25.4999C22.5247 23.6583 19.833 22.6666 16.9997 22.6666C14.1663 22.6666 11.6163 23.6583 9.49134 25.4999C7.08301 23.3749 5.66634 20.3999 5.66634 16.9999C5.66634 13.9941 6.86039 11.1115 8.9858 8.98604C11.1112 6.86063 13.9939 5.66659 16.9997 5.66659ZM19.833 8.34409C19.2947 8.35825 18.7847 8.71242 18.558 9.26492L16.7305 13.8408L16.5888 14.1666C15.583 14.3508 14.7472 15.0166 14.3647 15.9516C13.7838 17.4108 14.4922 19.0541 15.9513 19.6349C17.4105 20.2158 19.0538 19.5074 19.6347 18.0483C20.003 17.1133 19.833 16.0366 19.2238 15.2433L19.3655 14.8749L21.193 10.3274L21.2072 10.2849C21.4905 9.56242 21.1363 8.74075 20.4138 8.44325C20.2297 8.37242 20.0455 8.34409 19.833 8.34409ZM14.1663 8.49992C13.7906 8.49992 13.4303 8.64917 13.1646 8.91485C12.8989 9.18053 12.7497 9.54086 12.7497 9.91659C12.7497 10.2923 12.8989 10.6526 13.1646 10.9183C13.4303 11.184 13.7906 11.3333 14.1663 11.3333C14.5421 11.3333 14.9024 11.184 15.1681 10.9183C15.4338 10.6526 15.583 10.2923 15.583 9.91659C15.583 9.54086 15.4338 9.18053 15.1681 8.91485C14.9024 8.64917 14.5421 8.49992 14.1663 8.49992ZM9.91634 12.7499C9.54062 12.7499 9.18028 12.8992 8.91461 13.1649C8.64893 13.4305 8.49967 13.7909 8.49967 14.1666C8.49967 14.5423 8.64893 14.9026 8.91461 15.1683C9.18028 15.434 9.54062 15.5833 9.91634 15.5833C10.2921 15.5833 10.6524 15.434 10.9181 15.1683C11.1838 14.9026 11.333 14.5423 11.333 14.1666C11.333 13.7909 11.1838 13.4305 10.9181 13.1649C10.6524 12.8992 10.2921 12.7499 9.91634 12.7499ZM24.083 12.7499C23.7073 12.7499 23.347 12.8992 23.0813 13.1649C22.8156 13.4305 22.6663 13.7909 22.6663 14.1666C22.6663 14.5423 22.8156 14.9026 23.0813 15.1683C23.347 15.434 23.7073 15.5833 24.083 15.5833C24.4587 15.5833 24.8191 15.434 25.0847 15.1683C25.3504 14.9026 25.4997 14.5423 25.4997 14.1666C25.4997 13.7909 25.3504 13.4305 25.0847 13.1649C24.8191 12.8992 24.4587 12.7499 24.083 12.7499Z" fill="black"/>
</svg>
