<svg width="38" height="38" viewBox="0 0 38 38" fill="none" xmlns="http://www.w3.org/2000/svg">
<path d="M19.0003 0.666748C16.5928 0.666748 14.2088 1.14095 11.9845 2.06229C9.76016 2.98363 7.73911 4.33405 6.0367 6.03646C2.59853 9.47462 0.666992 14.1378 0.666992 19.0001C0.666992 23.8624 2.59853 28.5255 6.0367 31.9637C7.73911 33.6661 9.76016 35.0165 11.9845 35.9379C14.2088 36.8592 16.5928 37.3334 19.0003 37.3334C23.8626 37.3334 28.5258 35.4019 31.964 31.9637C35.4021 28.5255 37.3337 23.8624 37.3337 19.0001C37.3337 16.5925 36.8595 14.2085 35.9381 11.9842C35.0168 9.75992 33.6664 7.73886 31.964 6.03646C30.2615 4.33405 28.2405 2.98363 26.0162 2.06229C23.7919 1.14095 21.4079 0.666748 19.0003 0.666748ZM19.0003 4.33341C22.8902 4.33341 26.6207 5.87865 29.3712 8.62918C32.1218 11.3797 33.667 15.1102 33.667 19.0001C33.667 22.8899 32.1218 26.6204 29.3712 29.371C26.6207 32.1215 22.8902 33.6667 19.0003 33.6667C15.1105 33.6667 11.38 32.1215 8.62943 29.371C5.87889 26.6204 4.33366 22.8899 4.33366 19.0001C4.33366 15.1102 5.87889 11.3797 8.62943 8.62918C11.38 5.87865 15.1105 4.33341 19.0003 4.33341ZM14.8753 11.3367C12.052 11.3367 9.83366 13.5551 9.83366 16.3784C9.83366 19.8434 12.9503 22.6667 17.6803 26.9567L19.0003 28.1667L20.3203 26.9567C25.0503 22.6667 28.167 19.8434 28.167 16.3784C28.167 13.5551 25.9487 11.3367 23.1253 11.3367C21.5303 11.3367 20.0087 12.0884 19.0003 13.2617C17.992 12.0884 16.4703 11.3367 14.8753 11.3367Z" fill="black"/>
</svg>
