<svg width="184" height="40" viewBox="0 0 184 40" fill="none" xmlns="http://www.w3.org/2000/svg">
<rect width="40" height="40" rx="20" fill="#D01818"/>
<path d="M23.1203 13.32H25.0003V10.14C24.0901 10.0454 23.1755 9.99865 22.2603 10C19.5403 10 17.6803 11.66 17.6803 14.7V17.32H14.6104V20.88H17.6803V30H21.3603V20.88H24.4203L24.8803 17.32H21.3603V15.05C21.3603 14 21.6403 13.32 23.1203 13.32Z" fill="white"/>
<rect x="48" width="40" height="40" rx="20" fill="#D01818"/>
<path d="M75.0585 11.6666H60.9418C60.7831 11.6644 60.6255 11.6935 60.4781 11.7522C60.3307 11.8109 60.1962 11.8981 60.0825 12.0087C59.9687 12.1194 59.8779 12.2514 59.8151 12.3971C59.7524 12.5429 59.719 12.6996 59.7168 12.8583V27.1416C59.719 27.3003 59.7524 27.457 59.8151 27.6028C59.8779 27.7486 59.9687 27.8805 60.0825 27.9912C60.1962 28.1019 60.3307 28.189 60.4781 28.2477C60.6255 28.3064 60.7831 28.3355 60.9418 28.3333H75.0585C75.2171 28.3355 75.3747 28.3064 75.5222 28.2477C75.6696 28.189 75.804 28.1019 75.9178 27.9912C76.0316 27.8805 76.1224 27.7486 76.1851 27.6028C76.2479 27.457 76.2813 27.3003 76.2835 27.1416V12.8583C76.2813 12.6996 76.2479 12.5429 76.1851 12.3971C76.1224 12.2514 76.0316 12.1194 75.9178 12.0087C75.804 11.8981 75.6696 11.8109 75.5222 11.7522C75.3747 11.6935 75.2171 11.6644 75.0585 11.6666ZM64.7418 25.6166H62.2418V18.1166H64.7418V25.6166ZM63.4918 17.0666C63.147 17.0666 62.8164 16.9297 62.5726 16.6859C62.3288 16.4421 62.1918 16.1114 62.1918 15.7666C62.1918 15.4218 62.3288 15.0912 62.5726 14.8474C62.8164 14.6036 63.147 14.4666 63.4918 14.4666C63.6749 14.4459 63.8603 14.464 64.0359 14.5199C64.2114 14.5757 64.3732 14.668 64.5107 14.7908C64.6481 14.9135 64.7581 15.0639 64.8334 15.232C64.9086 15.4002 64.9476 15.5824 64.9476 15.7666C64.9476 15.9509 64.9086 16.133 64.8334 16.3012C64.7581 16.4694 64.6481 16.6198 64.5107 16.7425C64.3732 16.8652 64.2114 16.9575 64.0359 17.0134C63.8603 17.0692 63.6749 17.0874 63.4918 17.0666ZM73.7585 25.6166H71.2585V21.5916C71.2585 20.5833 70.9001 19.925 69.9918 19.925C69.7107 19.927 69.437 20.0152 69.2075 20.1776C68.978 20.34 68.8039 20.5688 68.7085 20.8333C68.6433 21.0292 68.615 21.2354 68.6251 21.4416V25.6083H66.1251C66.1251 25.6083 66.1251 18.7916 66.1251 18.1083H68.6251V19.1666C68.8522 18.7725 69.1826 18.4479 69.5805 18.2276C69.9784 18.0074 70.4289 17.8998 70.8835 17.9166C72.5501 17.9166 73.7585 18.9916 73.7585 21.3V25.6166Z" fill="white"/>
<rect x="96" width="40" height="40" rx="20" fill="#D01818"/>
<path d="M124.333 14.8335C123.706 15.1053 123.044 15.2849 122.366 15.3668C123.081 14.9396 123.617 14.2675 123.874 13.4752C123.202 13.8752 122.467 14.1571 121.699 14.3085C121.186 13.7523 120.503 13.3821 119.758 13.2559C119.012 13.1297 118.245 13.2546 117.578 13.6112C116.91 13.9677 116.38 14.5356 116.07 15.2259C115.761 15.9161 115.689 16.6897 115.866 17.4252C114.507 17.3564 113.178 17.0026 111.965 16.3867C110.752 15.7708 109.682 14.9066 108.824 13.8502C108.524 14.3753 108.366 14.97 108.366 15.5752C108.365 16.1372 108.503 16.6907 108.767 17.1865C109.032 17.6823 109.415 18.1049 109.883 18.4168C109.339 18.4021 108.808 18.2563 108.333 17.9918V18.0335C108.337 18.8209 108.613 19.5828 109.114 20.1901C109.615 20.7975 110.31 21.2132 111.083 21.3668C110.785 21.4573 110.477 21.505 110.166 21.5085C109.951 21.506 109.736 21.4865 109.524 21.4502C109.744 22.1275 110.17 22.7195 110.742 23.1436C111.314 23.5678 112.004 23.8031 112.716 23.8168C111.514 24.7629 110.029 25.2792 108.499 25.2835C108.221 25.2844 107.942 25.2677 107.666 25.2335C109.228 26.2421 111.048 26.7774 112.908 26.7752C114.191 26.7885 115.464 26.546 116.652 26.0619C117.84 25.5778 118.92 24.8617 119.829 23.9556C120.737 23.0494 121.456 21.9713 121.943 20.7843C122.43 19.5972 122.676 18.3249 122.666 17.0418C122.666 16.9002 122.666 16.7502 122.666 16.6002C123.32 16.1125 123.884 15.5147 124.333 14.8335Z" fill="white"/>
<rect x="144" width="40" height="40" rx="20" fill="#D01818"/>
<path d="M173.167 18.0919C173.208 16.8991 172.947 15.7152 172.409 14.6502C172.043 14.2132 171.536 13.9183 170.975 13.8169C168.656 13.6065 166.328 13.5203 164 13.5586C161.681 13.5185 159.361 13.602 157.05 13.8086C156.593 13.8917 156.171 14.1059 155.834 14.4252C155.084 15.1169 155 16.3002 154.917 17.3002C154.796 19.0982 154.796 20.9023 154.917 22.7002C154.941 23.2631 155.025 23.8218 155.167 24.3669C155.267 24.7878 155.471 25.1772 155.759 25.5002C156.098 25.8364 156.531 26.0629 157 26.1502C158.797 26.372 160.607 26.4639 162.417 26.4252C165.334 26.4669 167.892 26.4252 170.917 26.1919C171.398 26.1099 171.843 25.8832 172.192 25.5419C172.425 25.3085 172.599 25.0228 172.7 24.7086C172.998 23.7941 173.145 22.837 173.134 21.8752C173.167 21.4086 173.167 18.5919 173.167 18.0919ZM162.117 22.3752V17.2169L167.05 19.8086C165.667 20.5752 163.842 21.4419 162.117 22.3752Z" fill="white"/>
</svg>
