<svg width="27" height="23" viewBox="0 0 27 23" fill="none" xmlns="http://www.w3.org/2000/svg">
<path d="M13.149 0.272898C13.3724 0.17531 13.6263 0.17531 13.8497 0.272898C18.1883 2.16852 22.3002 4.48583 26.1337 7.17288C26.4111 7.36733 26.5514 7.70446 26.4937 8.0383C26.4361 8.37215 26.1909 8.64271 25.8643 8.73285C25.0652 8.95341 24.2731 9.19097 23.4881 9.44413C20.3018 10.4717 17.2347 11.7647 14.3126 13.297L14.3088 13.299C14.1763 13.3685 14.0441 13.4384 13.9122 13.5089C13.6546 13.6466 13.3452 13.6466 13.0875 13.5089C12.9544 13.4378 12.8209 13.3671 12.6872 13.297C11.2423 12.5393 9.76195 11.8401 8.24927 11.2026V10.9417C8.24927 10.7884 8.32792 10.6524 8.44962 10.5787C10.2056 9.5149 12.0169 8.53332 13.8781 7.63931C14.3137 7.43008 14.4972 6.90734 14.288 6.47173C14.0788 6.03613 13.556 5.85262 13.1204 6.06185C11.208 6.98046 9.34693 7.989 7.54285 9.08197C7.0139 9.40242 6.65831 9.92689 6.54135 10.5145C5.54394 10.1308 4.53342 9.77343 3.51061 9.44358C2.72564 9.19043 1.93345 8.95339 1.1344 8.73283C0.807829 8.64269 0.562638 8.37213 0.504981 8.03829C0.447323 7.70445 0.587562 7.36732 0.864983 7.17287C4.69846 4.48581 8.8104 2.16852 13.149 0.272898Z" fill="#0D6EFD"/>
<path d="M14.7369 15.0524C17.5823 13.5321 20.5717 12.2468 23.6794 11.2224C23.836 12.873 23.936 14.54 23.9774 16.2215C23.9863 16.5822 23.7728 16.9114 23.4398 17.0505C20.1135 18.4392 16.9495 20.1398 13.9845 22.1157C13.6907 22.3115 13.3079 22.3115 13.0141 22.1157C10.0491 20.1398 6.88512 18.4392 3.5588 17.0505C3.22579 16.9114 3.01229 16.5822 3.02118 16.2215C3.0626 14.5399 3.16261 12.8728 3.31925 11.222C4.39375 11.5762 5.45411 11.9616 6.49927 12.377V13.8592C5.97619 14.1618 5.62427 14.7273 5.62427 15.3751C5.62427 15.9529 5.90436 16.4654 6.33619 16.7841C6.23176 17.2281 6.0772 17.6627 5.8725 18.0788C6.40064 18.3281 6.92427 18.5853 7.44322 18.8505C7.73877 18.2494 7.95307 17.6184 8.0861 16.9742C8.69784 16.7015 9.12427 16.0881 9.12427 15.3751C9.12427 14.7273 8.77234 14.1618 8.24927 13.8592V13.107C9.6159 13.7041 10.9546 14.3534 12.2628 15.0524C13.0358 15.4654 13.9639 15.4654 14.7369 15.0524Z" fill="#0D6EFD"/>
<path d="M4.70519 19.7061C5.19418 19.2171 5.58346 18.6663 5.8725 18.0788C6.40064 18.3281 6.92427 18.5853 7.44322 18.8505C7.07157 19.6063 6.57118 20.315 5.94263 20.9435C5.60092 21.2852 5.0469 21.2852 4.70519 20.9435C4.36349 20.6018 4.36349 20.0478 4.70519 19.7061Z" fill="#0D6EFD"/>
</svg>
