<svg width="25" height="26" viewBox="0 0 25 26" fill="none" xmlns="http://www.w3.org/2000/svg">
<path d="M23.0078 6.2425L23.022 6.22833L17.752 0.958333L16.2503 2.46L19.2395 5.44917C17.9078 5.95917 16.9587 7.23417 16.9587 8.75C16.9587 9.2151 17.0503 9.67564 17.2283 10.1053C17.4062 10.535 17.6671 10.9255 17.996 11.2543C18.6602 11.9185 19.561 12.2917 20.5003 12.2917C21.0103 12.2917 21.4778 12.1783 21.917 11.9942V22.2083C21.917 22.5841 21.7677 22.9444 21.5021 23.2101C21.2364 23.4757 20.876 23.625 20.5003 23.625C20.1246 23.625 19.7643 23.4757 19.4986 23.2101C19.2329 22.9444 19.0837 22.5841 19.0837 22.2083V15.8333C19.0837 15.0819 18.7851 14.3612 18.2538 13.8299C17.7224 13.2985 17.0018 13 16.2503 13H14.8337V3.08333C14.8337 2.33189 14.5351 1.61122 14.0038 1.07986C13.4724 0.548511 12.7518 0.25 12.0003 0.25H3.50033C2.74888 0.25 2.02821 0.548511 1.49686 1.07986C0.965503 1.61122 0.666992 2.33189 0.666992 3.08333V25.75H14.8337V15.125H16.9587V22.2083C16.9587 23.1476 17.3318 24.0485 17.996 24.7127C18.6602 25.3769 19.561 25.75 20.5003 25.75C20.9654 25.75 21.426 25.6584 21.8557 25.4804C22.2854 25.3024 22.6758 25.0415 23.0047 24.7127C23.3335 24.3838 23.5944 23.9934 23.7724 23.5637C23.9504 23.134 24.042 22.6734 24.042 22.2083V8.75C24.042 7.7725 23.6453 6.88 23.0078 6.2425ZM12.0003 15.125V22.9167H3.50033V13H12.0003V15.125ZM12.0003 10.1667H3.50033V3.08333H12.0003V10.1667ZM20.5003 10.1667C20.1246 10.1667 19.7643 10.0174 19.4986 9.75173C19.2329 9.48606 19.0837 9.12572 19.0837 8.75C19.0837 8.37428 19.2329 8.01394 19.4986 7.74827C19.7643 7.48259 20.1246 7.33333 20.5003 7.33333C20.876 7.33333 21.2364 7.48259 21.5021 7.74827C21.7677 8.01394 21.917 8.37428 21.917 8.75C21.917 9.12572 21.7677 9.48606 21.5021 9.75173C21.2364 10.0174 20.876 10.1667 20.5003 10.1667Z" fill="black"/>
</svg>
